<svg width="1440" height="900" viewBox="0 0 1440 900" fill="none" xmlns="http://www.w3.org/2000/svg">
  <defs>
    <linearGradient id="bg" x1="0" y1="0" x2="1440" y2="900" gradientUnits="userSpaceOnUse">
      <stop stop-color="#0B1020"/>
      <stop offset="1" stop-color="#111827"/>
    </linearGradient>
    <linearGradient id="card" x1="0" y1="0" x2="340" y2="210" gradientUnits="userSpaceOnUse">
      <stop stop-color="#171F34"/>
      <stop offset="1" stop-color="#111827"/>
    </linearGradient>
    <filter id="shadow" x="0" y="0" width="200%" height="200%">
      <feDropShadow dx="0" dy="18" stdDeviation="18" flood-color="#000000" flood-opacity="0.35"/>
    </filter>
  </defs>

  <rect width="1440" height="900" rx="28" fill="url(#bg)"/>

  <rect x="28" y="28" width="1384" height="844" rx="24" fill="#0F172A" stroke="#1F2937"/>

  <rect x="28" y="28" width="248" height="844" rx="24" fill="#0B1220"/>
  <text x="64" y="86" fill="#F8FAFC" font-size="28" font-family="Segoe UI, Arial, sans-serif" font-weight="700">Copilot-Terminal</text>
  <text x="64" y="116" fill="#94A3B8" font-size="14" font-family="Segoe UI, Arial, sans-serif">项目终端统一管理</text>

  <rect x="56" y="150" width="192" height="46" rx="14" fill="#2563EB"/>
  <text x="152" y="179" text-anchor="middle" fill="#FFFFFF" font-size="18" font-family="Segoe UI, Arial, sans-serif" font-weight="700">+ 新建窗口</text>

  <rect x="48" y="224" width="208" height="1" fill="#1F2937"/>

  <rect x="56" y="252" width="192" height="56" rx="14" fill="#111827" stroke="#334155"/>
  <circle cx="80" cy="280" r="7" fill="#22C55E"/>
  <text x="98" y="275" fill="#E2E8F0" font-size="17" font-family="Segoe UI, Arial, sans-serif" font-weight="600">用户中心</text>
  <text x="98" y="295" fill="#64748B" font-size="13" font-family="Segoe UI, Arial, sans-serif">D:\work\user-center</text>

  <rect x="56" y="322" width="192" height="56" rx="14" fill="#111827"/>
  <circle cx="80" cy="350" r="7" fill="#F59E0B"/>
  <text x="98" y="345" fill="#E2E8F0" font-size="17" font-family="Segoe UI, Arial, sans-serif" font-weight="600">支付服务</text>
  <text x="98" y="365" fill="#64748B" font-size="13" font-family="Segoe UI, Arial, sans-serif">D:\work\payment-service</text>

  <rect x="56" y="392" width="192" height="56" rx="14" fill="#111827"/>
  <circle cx="80" cy="420" r="7" fill="#60A5FA"/>
  <text x="98" y="415" fill="#E2E8F0" font-size="17" font-family="Segoe UI, Arial, sans-serif" font-weight="600">管理后台</text>
  <text x="98" y="435" fill="#64748B" font-size="13" font-family="Segoe UI, Arial, sans-serif">D:\work\admin-web</text>

  <rect x="308" y="56" width="1076" height="64" rx="18" fill="#111827" stroke="#1F2937"/>
  <text x="344" y="94" fill="#F8FAFC" font-size="30" font-family="Segoe UI, Arial, sans-serif" font-weight="700">统一视图</text>
  <rect x="980" y="72" width="372" height="32" rx="12" fill="#0B1220"/>
  <text x="1004" y="93" fill="#64748B" font-size="14" font-family="Segoe UI, Arial, sans-serif">搜索窗口、路径、Git 分支...</text>

  <text x="324" y="158" fill="#CBD5E1" font-size="18" font-family="Segoe UI, Arial, sans-serif" font-weight="600">活跃窗口</text>
  <text x="1318" y="158" text-anchor="end" fill="#64748B" font-size="14" font-family="Segoe UI, Arial, sans-serif">自动保存 · 快速切换 · 快捷导航</text>

  <g filter="url(#shadow)">
    <rect x="324" y="188" width="332" height="214" rx="22" fill="url(#card)" stroke="#334155"/>
    <circle cx="356" cy="220" r="8" fill="#22C55E"/>
    <text x="378" y="225" fill="#F8FAFC" font-size="24" font-family="Segoe UI, Arial, sans-serif" font-weight="700">用户中心</text>
    <text x="620" y="224" text-anchor="end" fill="#93C5FD" font-size="14" font-family="Segoe UI, Arial, sans-serif">main</text>
    <text x="356" y="258" fill="#94A3B8" font-size="14" font-family="Segoe UI, Arial, sans-serif">D:\work\user-center</text>
    <rect x="356" y="284" width="86" height="28" rx="10" fill="#1E293B"/>
    <text x="399" y="303" text-anchor="middle" fill="#E2E8F0" font-size="13" font-family="Segoe UI, Arial, sans-serif">code</text>
    <rect x="450" y="284" width="86" height="28" rx="10" fill="#1E293B"/>
    <text x="493" y="303" text-anchor="middle" fill="#E2E8F0" font-size="13" font-family="Segoe UI, Arial, sans-serif">docs</text>
    <rect x="544" y="284" width="86" height="28" rx="10" fill="#1E293B"/>
    <text x="587" y="303" text-anchor="middle" fill="#E2E8F0" font-size="13" font-family="Segoe UI, Arial, sans-serif">pipeline</text>
    <rect x="356" y="330" width="268" height="1" fill="#243041"/>
    <text x="356" y="360" fill="#CBD5E1" font-size="15" font-family="Segoe UI, Arial, sans-serif">状态：运行中 · 2 个窗格 · 最近活跃：3 分钟前</text>
    <text x="356" y="387" fill="#60A5FA" font-size="14" font-family="Segoe UI, Arial, sans-serif">Claude：Sonnet 4.6 · Context 45% · $0.18</text>
  </g>

  <g filter="url(#shadow)">
    <rect x="688" y="188" width="332" height="214" rx="22" fill="url(#card)" stroke="#334155"/>
    <circle cx="720" cy="220" r="8" fill="#F59E0B"/>
    <text x="742" y="225" fill="#F8FAFC" font-size="24" font-family="Segoe UI, Arial, sans-serif" font-weight="700">支付服务</text>
    <text x="984" y="224" text-anchor="end" fill="#93C5FD" font-size="14" font-family="Segoe UI, Arial, sans-serif">feature/refactor</text>
    <text x="720" y="258" fill="#94A3B8" font-size="14" font-family="Segoe UI, Arial, sans-serif">D:\work\payment-service</text>
    <rect x="720" y="284" width="76" height="28" rx="10" fill="#1E293B"/>
    <text x="758" y="303" text-anchor="middle" fill="#E2E8F0" font-size="13" font-family="Segoe UI, Arial, sans-serif">code</text>
    <rect x="804" y="284" width="76" height="28" rx="10" fill="#1E293B"/>
    <text x="842" y="303" text-anchor="middle" fill="#E2E8F0" font-size="13" font-family="Segoe UI, Arial, sans-serif">logs</text>
    <rect x="888" y="284" width="108" height="28" rx="10" fill="#1E293B"/>
    <text x="942" y="303" text-anchor="middle" fill="#E2E8F0" font-size="13" font-family="Segoe UI, Arial, sans-serif">monitor</text>
    <rect x="720" y="330" width="268" height="1" fill="#243041"/>
    <text x="720" y="360" fill="#CBD5E1" font-size="15" font-family="Segoe UI, Arial, sans-serif">状态：等待输入 · 1 个窗格 · 最近活跃：刚刚</text>
    <text x="720" y="387" fill="#60A5FA" font-size="14" font-family="Segoe UI, Arial, sans-serif">已启用快捷导航与 IDE 打开</text>
  </g>

  <g filter="url(#shadow)">
    <rect x="1052" y="188" width="332" height="214" rx="22" fill="url(#card)" stroke="#334155"/>
    <circle cx="1084" cy="220" r="8" fill="#60A5FA"/>
    <text x="1106" y="225" fill="#F8FAFC" font-size="24" font-family="Segoe UI, Arial, sans-serif" font-weight="700">管理后台</text>
    <text x="1348" y="224" text-anchor="end" fill="#93C5FD" font-size="14" font-family="Segoe UI, Arial, sans-serif">release/1.2</text>
    <text x="1084" y="258" fill="#94A3B8" font-size="14" font-family="Segoe UI, Arial, sans-serif">D:\work\admin-web</text>
    <rect x="1084" y="284" width="76" height="28" rx="10" fill="#1E293B"/>
    <text x="1122" y="303" text-anchor="middle" fill="#E2E8F0" font-size="13" font-family="Segoe UI, Arial, sans-serif">code</text>
    <rect x="1168" y="284" width="76" height="28" rx="10" fill="#1E293B"/>
    <text x="1206" y="303" text-anchor="middle" fill="#E2E8F0" font-size="13" font-family="Segoe UI, Arial, sans-serif">docs</text>
    <rect x="1252" y="284" width="108" height="28" rx="10" fill="#1E293B"/>
    <text x="1306" y="303" text-anchor="middle" fill="#E2E8F0" font-size="13" font-family="Segoe UI, Arial, sans-serif">storybook</text>
    <rect x="1084" y="330" width="268" height="1" fill="#243041"/>
    <text x="1084" y="360" fill="#CBD5E1" font-size="15" font-family="Segoe UI, Arial, sans-serif">状态：已暂停 · 4 个窗格 · 最近活跃：1 小时前</text>
    <text x="1084" y="387" fill="#60A5FA" font-size="14" font-family="Segoe UI, Arial, sans-serif">支持归档恢复与工作区自动加载</text>
  </g>

  <g filter="url(#shadow)">
    <rect x="324" y="436" width="1060" height="388" rx="22" fill="#111827" stroke="#1F2937"/>
    <text x="356" y="478" fill="#F8FAFC" font-size="24" font-family="Segoe UI, Arial, sans-serif" font-weight="700">功能亮点</text>

    <rect x="356" y="510" width="304" height="122" rx="18" fill="#0F172A" stroke="#223042"/>
    <text x="382" y="548" fill="#F8FAFC" font-size="20" font-family="Segoe UI, Arial, sans-serif" font-weight="700">多窗口总览</text>
    <text x="382" y="580" fill="#94A3B8" font-size="14" font-family="Segoe UI, Arial, sans-serif">卡片式主页统一展示窗口名称、状态、路径、Git 分支与项目链接。</text>

    <rect x="702" y="510" width="304" height="122" rx="18" fill="#0F172A" stroke="#223042"/>
    <text x="728" y="548" fill="#F8FAFC" font-size="20" font-family="Segoe UI, Arial, sans-serif" font-weight="700">沉浸式终端</text>
    <text x="728" y="580" fill="#94A3B8" font-size="14" font-family="Segoe UI, Arial, sans-serif">进入窗口后支持拆分窗格、快速切换、侧边栏操作与终端快捷键。</text>

    <rect x="1048" y="510" width="304" height="122" rx="18" fill="#0F172A" stroke="#223042"/>
    <text x="1074" y="548" fill="#F8FAFC" font-size="20" font-family="Segoe UI, Arial, sans-serif" font-weight="700">项目上下文</text>
    <text x="1074" y="580" fill="#94A3B8" font-size="14" font-family="Segoe UI, Arial, sans-serif">通过 copilot.json 暴露仓库、文档、流水线、监控和日志入口。</text>

    <rect x="356" y="660" width="304" height="122" rx="18" fill="#0F172A" stroke="#223042"/>
    <text x="382" y="698" fill="#F8FAFC" font-size="20" font-family="Segoe UI, Arial, sans-serif" font-weight="700">快捷导航</text>
    <text x="382" y="730" fill="#94A3B8" font-size="14" font-family="Segoe UI, Arial, sans-serif">双击 Shift 打开导航面板，快速访问常用 URL 或本地文件夹。</text>

    <rect x="702" y="660" width="304" height="122" rx="18" fill="#0F172A" stroke="#223042"/>
    <text x="728" y="698" fill="#F8FAFC" font-size="20" font-family="Segoe UI, Arial, sans-serif" font-weight="700">工作区恢复</text>
    <text x="728" y="730" fill="#94A3B8" font-size="14" font-family="Segoe UI, Arial, sans-serif">自动保存窗口布局与设置，启动时恢复历史工作区，降低重复配置成本。</text>

    <rect x="1048" y="660" width="304" height="122" rx="18" fill="#0F172A" stroke="#223042"/>
    <text x="1074" y="698" fill="#F8FAFC" font-size="20" font-family="Segoe UI, Arial, sans-serif" font-weight="700">Claude 集成</text>
    <text x="1074" y="730" fill="#94A3B8" font-size="14" font-family="Segoe UI, Arial, sans-serif">支持 StatusLine 配置与模型信息展示，更适合 AI 辅助开发工作流。</text>
  </g>
</svg>
